<?xml version="1.0" encoding="UTF-8" standalone="no"?>
<!DOCTYPE svg PUBLIC "-//W3C//DTD SVG 1.1//EN" "http://www.w3.org/Graphics/SVG/1.1/DTD/svg11.dtd">
<svg version="1.1" xmlns="http://www.w3.org/2000/svg" xmlns:xlink="http://www.w3.org/1999/xlink" preserveAspectRatio="xMidYMid meet" viewBox="0 0 120 120" width="120" height="120"><defs><path d="M-5.83 -5.67L125.83 -5.67L125.83 124.25L-5.83 124.25L-5.83 -5.67Z" id="bsfS7VsVb"></path><path d="M65.67 74.81C85.83 74.81 102.17 91.15 102.17 111.31C102.17 119.88 102.17 135.46 102.17 150.63C102.17 152.57 100.6 154.14 98.66 154.14C82.49 154.14 37.51 154.14 21.34 154.14C19.4 154.14 17.83 152.57 17.83 150.63C17.83 135.46 17.83 120.41 17.83 111.97C17.83 91.45 34.47 74.81 54.99 74.81C64.43 74.81 56.1 74.81 65.67 74.81Z" id="a4QdJG20Ua"></path><path d="M87 40.5C87 55.49 74.9 67.67 60 67.67C45.1 67.67 33 55.49 33 40.5C33 25.51 45.1 13.33 60 13.33C74.9 13.33 87 25.51 87 40.5Z" id="aPe7vcfhx"></path></defs><g><g><g><use xlink:href="#bsfS7VsVb" opacity="1" fill="#5a5a5a" fill-opacity="0"></use></g><g><use xlink:href="#a4QdJG20Ua" opacity="1" fill="#F7F7F7" fill-opacity="1"></use></g><g><use xlink:href="#aPe7vcfhx" opacity="1" fill="#F7F7F7" fill-opacity="1"></use></g></g></g></svg>
