<?xml version="1.0" encoding="UTF-8" standalone="no"?>
<!DOCTYPE svg PUBLIC "-//W3C//DTD SVG 1.1//EN" "http://www.w3.org/Graphics/SVG/1.1/DTD/svg11.dtd">
<svg version="1.1" xmlns="http://www.w3.org/2000/svg" xmlns:xlink="http://www.w3.org/1999/xlink" preserveAspectRatio="xMidYMid meet" viewBox="0 0 91 91" width="91" height="91"><defs><path d="M88.5 45.5C88.5 69.23 69.23 88.5 45.5 88.5C21.77 88.5 2.5 69.23 2.5 45.5C2.5 21.77 21.77 2.5 45.5 2.5C69.23 2.5 88.5 21.77 88.5 45.5Z" id="a5dNXyyFjT"></path><linearGradient id="gradientabOYs5pK0" gradientUnits="userSpaceOnUse" x1="45.5" y1="2.5" x2="46.45" y2="88.5"><stop style="stop-color: #3dd3ff;stop-opacity: 1" offset="0%"></stop><stop style="stop-color: #00529b;stop-opacity: 1" offset="100%"></stop></linearGradient><path d="M31.53 61.57C30.75 62.38 30.77 63.66 31.57 64.45C32.56 65.41 34.08 66.88 35.07 67.84C35.87 68.62 37.16 68.6 37.94 67.8C45.36 60.15 66.21 38.67 73.63 31.03C74.41 30.22 74.39 28.94 73.58 28.16C72.59 27.2 71.08 25.72 70.09 24.76C69.28 23.98 68 24 67.22 24.81C59.8 32.45 38.95 53.93 31.53 61.57Z" id="aFIyOtnpv"></path><path d="M41.01 61.56C41.79 62.36 41.78 63.64 40.98 64.43C39.99 65.39 38.48 66.87 37.49 67.83C36.69 68.62 35.41 68.6 34.62 67.8C31.27 64.37 22.63 55.54 19.27 52.11C18.49 51.31 18.5 50.03 19.31 49.24C20.29 48.28 21.8 46.8 22.79 45.83C23.59 45.05 24.88 45.06 25.66 45.87C29.01 49.29 37.65 58.13 41.01 61.56Z" id="aiug6WnAC"></path></defs><g><g><g><g><use xlink:href="#a5dNXyyFjT" opacity="1" fill="url(#gradientabOYs5pK0)"></use></g><g><g><use xlink:href="#aFIyOtnpv" opacity="1" fill="#ffffff" fill-opacity="1"></use></g><g><use xlink:href="#aiug6WnAC" opacity="1" fill="#ffffff" fill-opacity="1"></use></g></g></g></g></g></svg>