<?xml version="1.0" encoding="UTF-8" standalone="no"?>
<!DOCTYPE svg PUBLIC "-//W3C//DTD SVG 1.1//EN" "http://www.w3.org/Graphics/SVG/1.1/DTD/svg11.dtd">
<svg version="1.1" xmlns="http://www.w3.org/2000/svg" xmlns:xlink="http://www.w3.org/1999/xlink" preserveAspectRatio="xMidYMid meet" viewBox="0 0 420 420" width="420" height="420"><defs><path d="M22.48 103.89L360.89 45.51L406.73 311.2L68.32 369.59L22.48 103.89Z" id="a8LNB62Qj"></path><path d="M47.98 70.72L385.96 70.72L385.96 340.34L47.98 340.34L47.98 70.72Z" id="d2ajeHGBM"></path><path d="M65.7 92.24L366.97 92.24L366.97 320.08L65.7 320.08L65.7 92.24Z" id="aq8dzcBG7"></path><path d="M367.98 269.75L288.26 183.99L162.44 320.35L367.81 320.35L367.98 269.75Z" id="c1SO30hzU3"></path><path d="M65.7 269.75L133.3 208.23L238.92 320.08L65.87 320.35L65.7 269.75Z" id="c2uc9mEwPF"></path><path d="M253.31 164.15C253.31 176.57 243.22 186.65 230.81 186.65C218.39 186.65 208.31 176.57 208.31 164.15C208.31 151.74 218.39 141.65 230.81 141.65C243.22 141.65 253.31 151.74 253.31 164.15Z" id="h5cD7dDLEN"></path></defs><g><g><g><use xlink:href="#a8LNB62Qj" opacity="1" fill="#959494" fill-opacity="1"></use></g><g><use xlink:href="#d2ajeHGBM" opacity="1" fill="#ececec" fill-opacity="1"></use></g><g><use xlink:href="#aq8dzcBG7" opacity="1" fill="#c8c8c8" fill-opacity="1"></use></g><g><g><use xlink:href="#c1SO30hzU3" opacity="1" fill="#737373" fill-opacity="1"></use></g><g><use xlink:href="#c2uc9mEwPF" opacity="1" fill="#a3a3a3" fill-opacity="1"></use></g><g><use xlink:href="#h5cD7dDLEN" opacity="1" fill="#737373" fill-opacity="1"></use></g></g></g></g></svg>