<?xml version="1.0" encoding="UTF-8" standalone="no"?><!DOCTYPE svg PUBLIC "-//W3C//DTD SVG 1.1//EN" "http://www.w3.org/Graphics/SVG/1.1/DTD/svg11.dtd"><svg width="100%" height="100%" viewBox="0 0 1600 1200" version="1.1" xmlns="http://www.w3.org/2000/svg" xmlns:xlink="http://www.w3.org/1999/xlink" xml:space="preserve" style="fill-rule:evenodd;clip-rule:evenodd;stroke-linejoin:round;stroke-miterlimit:1.41421;"><g id="Module"><g><circle id="Shape" cx="360.6" cy="360" r="120" style="fill:#d33367;"/><circle id="Shape1" cx="361.197" cy="360.597" r="70.448" style="fill:#2d374c;"/><circle id="Shape2" cx="361.197" cy="360.597" r="37.015" style="fill:#36868e;"/></g><g><circle id="Shape3" cx="840" cy="360" r="120" style="fill:#ff8b61;"/><circle id="Shape4" cx="840.597" cy="360.597" r="70.448" style="fill:#2d374c;"/><circle id="Shape5" cx="840.597" cy="360.597" r="37.015" style="fill:#f1e3cf;"/></g><g><circle id="Shape6" cx="1320" cy="840" r="120" style="fill:#ff8b61;"/><circle id="Shape7" cx="1320.6" cy="839.403" r="70.448" style="fill:#2d374c;"/><circle id="Shape8" cx="1320.6" cy="839.403" r="37.015" style="fill:#f1e3cf;"/></g><g><path id="Shape9" d="M1081.77,420.737c0,32.567 26.401,58.968 58.968,58.968c32.567,0 58.968,-26.401 58.968,-58.968c0,-32.567 -26.401,-58.968 -58.968,-58.968c-32.567,0 -58.968,26.401 -58.968,58.968Z" style="fill:#d33367;fill-rule:nonzero;"/><path id="Shape10" d="M960.295,420.737c0,32.567 26.401,58.968 58.968,58.968c32.567,0 58.968,-26.401 58.968,-58.968c0,-32.567 -26.401,-58.968 -58.968,-58.968c-32.567,0 -58.968,26.401 -58.968,58.968Z" style="fill:#ff8b61;fill-rule:nonzero;"/><path id="Shape11" d="M1081.77,301.622c0,32.567 26.401,58.968 58.968,58.968c32.567,0 58.968,-26.401 58.968,-58.968c0,-32.568 -26.401,-58.968 -58.968,-58.968c-32.567,0 -58.968,26.4 -58.968,58.968Z" style="fill:#ff8b61;fill-rule:nonzero;"/><path id="Shape12" d="M960,240l0,60.147c0,33.219 27.061,60.148 60.442,60.148c33.382,0 60.443,-26.929 60.443,-60.148c0,-33.218 -27.061,-60.147 -60.443,-60.147l-60.442,0Z" style="fill:#36868e;fill-rule:nonzero;"/></g><g><rect id="Shape13" x="1258.97" y="298.968" width="122.654" height="122.654" style="fill:#f1e3cf;"/><path id="Shape14" d="M1319.4,307.73l-52.873,52.873l52.873,52.873l52.873,-52.873l-52.873,-52.873Z" style="fill:#36868e;fill-rule:nonzero;"/><path id="Shape15" d="M1417,262.998l-72.53,0c0,40.057 32.473,72.53 72.53,72.53l0,-72.53Z" style="fill:#d33367;fill-rule:nonzero;"/><path id="Shape16" d="M1417,457.002l0,-72.53c-40.057,0 -72.53,32.473 -72.53,72.53l72.53,0Z" style="fill:#d33367;fill-rule:nonzero;"/><path id="Shape17" d="M1224.77,457.002l72.53,0c0,-40.057 -32.473,-72.53 -72.53,-72.53l0,72.53Z" style="fill:#d33367;fill-rule:nonzero;"/><path id="Shape18" d="M1224.77,262.998l0,72.53c40.057,0 72.53,-32.473 72.53,-72.53l-72.53,0Z" style="fill:#d33367;fill-rule:nonzero;"/></g><g id="Shape19"><path d="M1560.82,994.684l-85.127,85.189l85.127,85.19l85.127,-85.19l-85.127,-85.189Z" style="fill:#2d374c;fill-rule:nonzero;"/><path d="M1591.13,1049.54l-60.62,0l0,60.664l60.62,0l0,-60.664Z" style="fill:#36868e;fill-rule:nonzero;"/></g><g id="Shape20"><path d="M1080,240c66.274,0 120,-53.726 120,-120c0,-66.274 -53.726,-120 -120,-120l-120,0l0,120c0,66.274 53.726,120 120,120Z" style="fill:#f1e3cf;fill-rule:nonzero;"/><path d="M1031.76,143.518c39.631,0 71.759,-32.128 71.759,-71.759c0,-39.631 -32.128,-71.759 -71.759,-71.759l-71.759,0l0,71.759c0,39.631 32.128,71.759 71.759,71.759Z" style="fill:#2d374c;fill-rule:nonzero;"/><path d="M1080,194.472c40.464,0 73.266,-32.802 73.266,-73.266c0,-40.464 -32.802,-73.266 -73.266,-73.266c-40.464,0 -73.266,32.802 -73.266,73.266c0,40.464 32.802,73.266 73.266,73.266Z" style="fill:#36868e;fill-rule:nonzero;"/><path d="M1080,164.095c23.687,0 42.889,-19.202 42.889,-42.889c0,-23.687 -19.202,-42.889 -42.889,-42.889c-23.687,0 -42.889,19.202 -42.889,42.889c0,23.687 19.202,42.889 42.889,42.889Z" style="fill:#2d374c;fill-rule:nonzero;"/></g><g id="Shape21"><path d="M1200,120.603l0,119.397l119.397,0c66.607,0 120.603,-53.996 120.603,-120.603l0,-119.397l-119.397,0c-66.607,0 -120.603,53.996 -120.603,120.603Z" style="fill:#36868e;fill-rule:nonzero;"/><path d="M1251.86,120c0,38.965 31.588,70.553 70.553,70.553c38.965,0 70.553,-31.588 70.553,-70.553l0,-70.553l-70.553,0c-38.965,0 -70.553,31.588 -70.553,70.553Z" style="fill:#2d374c;fill-rule:nonzero;"/><path d="M1200,192.603l0,48l48,0c39.765,0 72,-32.235 72,-72l0,-48l-48,0c-39.765,0 -72,32.236 -72,72Z" style="fill:#ff8b61;fill-rule:nonzero;"/></g><g id="Shape22"><path d="M1680,120.603l0,119.397l-119.397,0c-66.607,0 -120.603,-53.996 -120.603,-120.603l0,-119.397l119.397,0c66.607,0 120.603,53.996 120.603,120.603Z" style="fill:#d33367;fill-rule:nonzero;"/><path d="M1628.14,120c0,38.965 -31.588,70.553 -70.553,70.553c-38.965,0 -70.553,-31.588 -70.553,-70.553l0,-70.553l70.553,0c38.965,0 70.553,31.588 70.553,70.553Z" style="fill:#2d374c;fill-rule:nonzero;"/><path d="M1680,192.603l0,48l-48,0c-39.765,0 -72,-32.235 -72,-72l0,-48l48,0c39.765,0 72,32.236 72,72Z" style="fill:#ff8b61;fill-rule:nonzero;"/></g><g id="Shape23"><path d="M1560,720c-66.274,0 -120,53.726 -120,120c0,66.274 53.726,120 120,120l120,0l0,-120c0,-66.274 -53.726,-120 -120,-120Z" style="fill:#f1e3cf;fill-rule:nonzero;"/><path d="M1608.24,816.482c-39.631,0 -71.759,32.128 -71.759,71.759c0,39.631 32.128,71.759 71.759,71.759l71.759,0l0,-71.759c0,-39.631 -32.128,-71.759 -71.759,-71.759Z" style="fill:#d33367;fill-rule:nonzero;"/><path d="M1560,765.528c-40.464,0 -73.266,32.802 -73.266,73.266c0,40.464 32.802,73.266 73.266,73.266c40.464,0 73.266,-32.802 73.266,-73.266c0,-40.464 -32.802,-73.266 -73.266,-73.266Z" style="fill:#36868e;fill-rule:nonzero;"/><path d="M1560,795.905c-23.687,0 -42.889,19.202 -42.889,42.889c0,23.687 19.202,42.889 42.889,42.889c23.687,0 42.889,-19.202 42.889,-42.889c0,-23.687 -19.202,-42.889 -42.889,-42.889Z" style="fill:#2d374c;fill-rule:nonzero;"/></g><g><ellipse id="Shape24" cx="360.295" cy="599.704" rx="100.835" ry="100.788" style="fill:#f1e3cf;"/><path id="Shape25" d="M480,480c0,65.948 -53.33,119.409 -119.115,119.409c0,-65.948 53.329,-119.409 119.115,-119.409Z" style="fill:#d33367;fill-rule:nonzero;"/><path id="Shape26" d="M359.115,595.931l0,3.478l-3.469,0c-63.869,0 -115.646,-51.904 -115.646,-115.931l0,-3.478l3.469,0c63.87,0 115.646,51.904 115.646,115.931Z" style="fill:#36868e;fill-rule:nonzero;"/><path id="Shape27" d="M355.646,600.591l3.469,0l0,3.478c0,64.027 -51.776,115.931 -115.646,115.931l-3.469,0l0,-3.478c0,-64.027 51.777,-115.931 115.646,-115.931Z" style="fill:#d33367;fill-rule:nonzero;"/><path id="Shape28" d="M480,716.522l0,3.478l-3.469,0c-63.87,0 -115.646,-51.904 -115.646,-115.931l0,-3.478l3.469,0c63.869,0 115.646,51.904 115.646,115.931Z" style="fill:#36868e;fill-rule:nonzero;"/></g><g><circle id="Shape29" cx="1080.04" cy="599.435" r="100.835" style="fill:#f1e3cf;"/><path id="Shape30" d="M1076.51,720c-64.344,0 -116.505,-52.161 -116.505,-116.505l0,-3.495l3.495,0c64.344,0 116.505,52.161 116.505,116.505l0,3.495l-3.495,0Z" style="fill:#d33367;fill-rule:nonzero;"/><path id="Shape31" d="M1196.51,600l3.495,0l0,3.495c0,64.344 -52.161,116.505 -116.505,116.505l-3.495,0l0,-3.495c0,-64.344 52.161,-116.505 116.505,-116.505Z" style="fill:#36868e;fill-rule:nonzero;"/><path id="Shape32" d="M1083.5,600l-3.495,0l0,-3.495c0,-64.344 52.161,-116.505 116.505,-116.505l3.495,0l0,3.495c0,64.344 -52.161,116.505 -116.505,116.505Z" style="fill:#d33367;fill-rule:nonzero;"/><path id="Shape33" d="M963.495,480c64.344,0 116.505,52.161 116.505,116.505l0,3.495l-3.495,0c-64.344,0 -116.505,-52.161 -116.505,-116.505l0,-3.495l3.495,0Z" style="fill:#36868e;fill-rule:nonzero;"/></g><g><path id="Shape34" d="M221.4,840.035c0,55.653 -45.183,100.836 -100.835,100.836c-55.653,0 -100.836,-45.183 -100.836,-100.836c0,-55.652 45.183,-100.835 100.836,-100.835c55.652,0 100.835,45.183 100.835,100.835Z" style="fill:#f1e3cf;"/><path id="Shape35" d="M0,836.505c0,-64.344 52.161,-116.505 116.505,-116.505l3.495,0l0,3.495c0,64.344 -52.161,116.505 -116.505,116.505l-3.495,0l0,-3.495Z" style="fill:#d33367;fill-rule:nonzero;"/><path id="Shape36" d="M120,956.505l0,3.495l-3.495,0c-64.344,0 -116.505,-52.161 -116.505,-116.505l0,-3.495l3.495,0c64.344,0 116.505,52.161 116.505,116.505Z" style="fill:#36868e;fill-rule:nonzero;"/><path id="Shape37" d="M120,843.495l0,-3.495l3.495,0c64.344,0 116.505,52.161 116.505,116.505l0,3.495l-3.495,0c-64.344,0 -116.505,-52.161 -116.505,-116.505Z" style="fill:#d33367;fill-rule:nonzero;"/><path id="Shape38" d="M240,723.495c0,64.344 -52.161,116.505 -116.505,116.505l-3.495,0l0,-3.495c0,-64.344 52.161,-116.505 116.505,-116.505l3.495,0l0,3.495Z" style="fill:#36868e;fill-rule:nonzero;"/></g><g><path id="Shape39" d="M720,0l0,240l-240,0c0,-132.548 107.452,-240 240,-240Z" style="fill:#d33367;fill-rule:nonzero;"/><path id="Shape40" d="M720,103.784l0,136.216l-136.552,0c0,-75.23 61.137,-136.216 136.552,-136.216Z" style="fill:#f1e3cf;fill-rule:nonzero;"/><path id="Shape41" d="M720,177.494l0,62.506l-62.66,0c0,-34.521 28.054,-62.506 62.66,-62.506Z" style="fill:#2d374c;fill-rule:nonzero;"/></g><g><path id="Shape42" d="M1680,720l-240,0l0,-240c132.548,0 240,107.452 240,240Z" style="fill:#d33367;fill-rule:nonzero;"/><path id="Shape43" d="M1576.22,720l-136.216,0l0,-136.552c75.23,0 136.216,61.137 136.216,136.552Z" style="fill:#f1e3cf;fill-rule:nonzero;"/><path id="Shape44" d="M1502.51,720l-62.506,0l0,-62.66c34.521,0 62.506,28.054 62.506,62.66Z" style="fill:#2d374c;fill-rule:nonzero;"/></g><g><path id="Shape45" d="M0,720l0,-240l240,0c0,132.548 -107.452,240 -240,240Z" style="fill:#36868e;fill-rule:nonzero;"/><path id="Shape46" d="M0,616.552l0,-136.552l136.216,0c0,75.415 -60.986,136.552 -136.216,136.552Z" style="fill:#f1e3cf;fill-rule:nonzero;"/><path id="Shape47" d="M0,542.66l0,-62.66l62.506,0c0,34.606 -27.985,62.66 -62.506,62.66Z" style="fill:#2d374c;fill-rule:nonzero;"/></g><g><path id="Shape48" d="M1440,480l0,240l-240,0c0,-132.548 107.452,-240 240,-240Z" style="fill:#36868e;fill-rule:nonzero;"/><path id="Shape49" d="M1440,583.448l0,136.552l-136.216,0c0,-75.415 60.986,-136.552 136.216,-136.552Z" style="fill:#f1e3cf;fill-rule:nonzero;"/><path id="Shape50" d="M1440,657.34l0,62.66l-62.506,0c0,-34.606 27.985,-62.66 62.506,-62.66Z" style="fill:#2d374c;fill-rule:nonzero;"/></g><g><path id="Shape51" d="M120.6,0c66.274,0 120,53.726 120,120c0,66.274 -53.726,120 -120,120c-66.274,0 -120,-53.726 -120,-120c0,-66.274 53.726,-120 120,-120Z" style="fill:#36868e;fill-rule:nonzero;"/><path id="Shape52" d="M121.19,48.354c39.894,0 72.236,32.341 72.236,72.236c0,39.894 -32.342,72.236 -72.236,72.236c-39.895,0 -72.236,-32.342 -72.236,-72.236c0,-39.895 32.341,-72.236 72.236,-72.236Z" style="fill:#f1e3cf;fill-rule:nonzero;"/><path id="Shape53" d="M122.369,83.145c21.332,0 38.624,17.293 38.624,38.624c0,21.332 -17.292,38.624 -38.624,38.624c-21.331,0 -38.624,-17.292 -38.624,-38.624c0,-21.331 17.293,-38.624 38.624,-38.624Z" style="fill:#2d374c;fill-rule:nonzero;"/><path id="Shape54" d="M240.6,94.349l0,145.651l-145.651,0c0,-80.441 65.21,-145.651 145.651,-145.651Z" style="fill:#d33367;fill-rule:nonzero;"/></g><g><path id="Shape55" d="M1320,960c66.274,0 120,53.726 120,120c0,66.274 -53.726,120 -120,120c-66.274,0 -120,-53.726 -120,-120c0,-66.274 53.726,-120 120,-120Z" style="fill:#36868e;fill-rule:nonzero;"/><path id="Shape56" d="M1320.59,1008.35c39.894,0 72.236,32.341 72.236,72.236c0,39.894 -32.342,72.236 -72.236,72.236c-39.895,0 -72.236,-32.342 -72.236,-72.236c0,-39.895 32.341,-72.236 72.236,-72.236Z" style="fill:#f1e3cf;fill-rule:nonzero;"/><path id="Shape57" d="M1321.77,1043.14c21.332,0 38.624,17.293 38.624,38.624c0,21.332 -17.292,38.624 -38.624,38.624c-21.331,0 -38.624,-17.292 -38.624,-38.624c0,-21.331 17.293,-38.624 38.624,-38.624Z" style="fill:#2d374c;fill-rule:nonzero;"/><path id="Shape58" d="M1440,1054.35l0,145.651l-145.651,0c0,-80.441 65.21,-145.651 145.651,-145.651Z" style="fill:#d33367;fill-rule:nonzero;"/></g><g><path id="Shape59" d="M299.568,117.336c-32.567,0 -58.968,-26.401 -58.968,-58.968c0,-32.567 26.401,-58.968 58.968,-58.968c32.567,0 58.968,26.401 58.968,58.968c0,32.567 -26.401,58.968 -58.968,58.968Z" style="fill:#ff8b61;fill-rule:nonzero;"/><path id="Shape60" d="M299.568,239.4c-32.567,0 -58.968,-26.401 -58.968,-58.968c0,-32.567 26.401,-58.968 58.968,-58.968c32.567,0 58.968,26.401 58.968,58.968c0,32.567 -26.401,58.968 -58.968,58.968Z" style="fill:#d33367;fill-rule:nonzero;"/><path id="Shape61" d="M419.273,117.336c-32.567,0 -58.968,-26.401 -58.968,-58.968c0,-32.567 26.401,-58.968 58.968,-58.968c32.567,0 58.968,26.401 58.968,58.968c0,32.567 -26.401,58.968 -58.968,58.968Z" style="fill:#d33367;fill-rule:nonzero;"/><path id="Shape62" d="M480.6,239.4l-60.442,0c-33.382,0 -60.443,-27.061 -60.443,-60.442c0,-33.382 27.061,-60.443 60.443,-60.443c33.381,0 60.442,27.061 60.442,60.443l0,60.442Z" style="fill:#36868e;fill-rule:nonzero;"/></g><g><path id="Shape63" d="M601.769,779.263c0,-32.567 26.401,-58.968 58.968,-58.968c32.567,0 58.968,26.401 58.968,58.968c0,32.567 -26.401,58.968 -58.968,58.968c-32.567,0 -58.968,-26.401 -58.968,-58.968Z" style="fill:#d33367;fill-rule:nonzero;"/><path id="Shape64" d="M480.295,779.263c0,-32.567 26.401,-58.968 58.968,-58.968c32.567,0 58.968,26.401 58.968,58.968c0,32.567 -26.401,58.968 -58.968,58.968c-32.567,0 -58.968,-26.401 -58.968,-58.968Z" style="fill:#ff8b61;fill-rule:nonzero;"/><path id="Shape65" d="M601.769,898.378c0,-32.567 26.401,-58.968 58.968,-58.968c32.567,0 58.968,26.401 58.968,58.968c0,32.568 -26.401,58.968 -58.968,58.968c-32.567,0 -58.968,-26.4 -58.968,-58.968Z" style="fill:#ff8b61;fill-rule:nonzero;"/><path id="Shape66" d="M480,960l0,-60.147c0,-33.219 27.061,-60.148 60.442,-60.148c33.382,0 60.443,26.929 60.443,60.148c0,33.218 -27.061,60.147 -60.443,60.147l-60.442,0Z" style="fill:#36868e;fill-rule:nonzero;"/></g><g><path id="Shape67" d="M58.968,1077.94c-32.567,0 -58.968,-26.401 -58.968,-58.968c0,-32.567 26.401,-58.968 58.968,-58.968c32.567,0 58.968,26.401 58.968,58.968c0,32.567 -26.401,58.968 -58.968,58.968Z" style="fill:#d33367;fill-rule:nonzero;"/><path id="Shape68" d="M58.968,1200c-32.567,0 -58.968,-26.401 -58.968,-58.968c0,-32.567 26.401,-58.968 58.968,-58.968c32.567,0 58.968,26.401 58.968,58.968c0,32.567 -26.401,58.968 -58.968,58.968Z" style="fill:#ff8b61;fill-rule:nonzero;"/><path id="Shape69" d="M178.673,1077.94c-32.567,0 -58.968,-26.401 -58.968,-58.968c0,-32.567 26.401,-58.968 58.968,-58.968c32.567,0 58.968,26.401 58.968,58.968c0,32.567 -26.401,58.968 -58.968,58.968Z" style="fill:#ff8b61;fill-rule:nonzero;"/><path id="Shape70" d="M240,1200l-60.442,0c-33.382,0 -60.443,-27.061 -60.443,-60.442c0,-33.382 27.061,-60.443 60.443,-60.443c33.381,0 60.442,27.061 60.442,60.443l0,60.442Z" style="fill:#36868e;fill-rule:nonzero;"/></g><g><rect id="Shape71" x="778.968" y="778.378" width="122.654" height="122.654" style="fill:#f1e3cf;"/><path id="Shape72" d="M839.397,892.27l-52.873,-52.873l52.873,-52.873l52.873,52.873l-52.873,52.873Z" style="fill:#36868e;fill-rule:nonzero;"/><path id="Shape73" d="M937.002,937.002l-72.53,0c0,-40.057 32.473,-72.53 72.53,-72.53l0,72.53Z" style="fill:#d33367;fill-rule:nonzero;"/><path id="Shape74" d="M937.002,742.998l0,72.53c-40.057,0 -72.53,-32.473 -72.53,-72.53l72.53,0Z" style="fill:#d33367;fill-rule:nonzero;"/><path id="Shape75" d="M744.767,742.998l72.53,0c0,40.057 -32.473,72.53 -72.53,72.53l0,-72.53Z" style="fill:#d33367;fill-rule:nonzero;"/><path id="Shape76" d="M744.767,937.002l0,-72.53c40.057,0 72.53,32.473 72.53,72.53l-72.53,0Z" style="fill:#d33367;fill-rule:nonzero;"/></g><g id="Shape77"><path d="M120.817,445.316l-85.127,-85.189l85.127,-85.188l85.126,85.188l-85.126,85.189Z" style="fill:#ff8b61;fill-rule:nonzero;"/><path d="M120.817,403.023l-42.864,-42.896l42.864,-42.895l42.864,42.895l-42.864,42.896Z" style="fill:#f1e3cf;fill-rule:nonzero;"/></g><g id="Shape78"><rect x="753.769" y="34.975" width="74.774" height="74.774" style="fill:#f1e3cf;"/><rect x="753.769" y="129.045" width="74.774" height="74.774" style="fill:#f1e3cf;"/><rect x="850.251" y="34.975" width="74.774" height="74.774" style="fill:#f1e3cf;"/><rect x="850.251" y="129.045" width="74.774" height="74.774" style="fill:#f1e3cf;"/><rect x="773.065" y="54.271" width="34.975" height="34.975" style="fill:#2d374c;"/><rect x="773.065" y="148.342" width="34.975" height="34.975" style="fill:#2d374c;"/><rect x="869.548" y="54.271" width="34.975" height="34.975" style="fill:#2d374c;"/><rect x="869.548" y="148.342" width="34.975" height="34.975" style="fill:#2d374c;"/></g><g id="Shape79"><path d="M601.416,685.316l-85.127,-85.189l85.127,-85.19l85.127,85.19l-85.127,85.189Z" style="fill:#2d374c;fill-rule:nonzero;"/><path d="M631.726,630.459l-60.62,0l0,-60.664l60.62,0l0,60.664Z" style="fill:#36868e;fill-rule:nonzero;"/></g><g id="Shape80"><path d="M600,960c66.274,0 120,53.726 120,120c0,66.274 -53.726,120 -120,120l-120,0l0,-120c0,-66.274 53.726,-120 120,-120Z" style="fill:#f1e3cf;fill-rule:nonzero;"/><path d="M551.759,1056.48c39.631,0 71.759,32.128 71.759,71.759c0,39.631 -32.128,71.759 -71.759,71.759l-71.759,0l0,-71.759c0,-39.631 32.128,-71.759 71.759,-71.759Z" style="fill:#2d374c;fill-rule:nonzero;"/><path d="M600,1005.53c40.464,0 73.266,32.802 73.266,73.266c0,40.464 -32.802,73.266 -73.266,73.266c-40.464,0 -73.266,-32.802 -73.266,-73.266c0,-40.464 32.802,-73.266 73.266,-73.266Z" style="fill:#36868e;fill-rule:nonzero;"/><path d="M600,1035.9c23.687,0 42.889,19.202 42.889,42.889c0,23.687 -19.202,42.889 -42.889,42.889c-23.687,0 -42.889,-19.202 -42.889,-42.889c0,-23.687 19.202,-42.889 42.889,-42.889Z" style="fill:#2d374c;fill-rule:nonzero;"/></g><g id="Shape81"><path d="M360,720l120,0l0,120c0,66.274 -53.726,120 -120,120l-120,0l0,-120c0,-66.274 53.726,-120 120,-120Z" style="fill:#36868e;fill-rule:nonzero;"/><path d="M360,771.859c38.965,0 70.553,31.588 70.553,70.553c0,38.965 -31.588,70.553 -70.553,70.553l-70.553,0l0,-70.553c0,-38.965 31.588,-70.553 70.553,-70.553Z" style="fill:#2d374c;fill-rule:nonzero;"/><path d="M432.603,720l48,0l0,48c0,39.765 -32.235,72 -72,72l-48,0l0,-48c0,-39.765 32.236,-72 72,-72Z" style="fill:#f1e3cf;fill-rule:nonzero;"/></g><g id="Shape82"><path d="M720,1079.4l0,-119.397l119.397,0c66.607,0 120.603,53.996 120.603,120.603l0,119.397l-119.397,0c-66.607,0 -120.603,-53.996 -120.603,-120.603Z" style="fill:#36868e;fill-rule:nonzero;"/><path d="M771.859,1080c0,-38.965 31.588,-70.553 70.553,-70.553c38.965,0 70.553,31.588 70.553,70.553l0,70.553l-70.553,0c-38.965,0 -70.553,-31.588 -70.553,-70.553Z" style="fill:#2d374c;fill-rule:nonzero;"/><path d="M720,1007.4l0,-48l48,0c39.765,0 72,32.235 72,72l0,48l-48,0c-39.765,0 -72,-32.236 -72,-72Z" style="fill:#ff8b61;fill-rule:nonzero;"/></g><g id="Shape83"><path d="M840,720c-66.274,0 -120,-53.726 -120,-120c0,-66.274 53.726,-120 120,-120l120,0l0,120c0,66.274 -53.726,120 -120,120Z" style="fill:#f1e3cf;fill-rule:nonzero;"/><path d="M888.241,623.518c-39.631,0 -71.759,-32.128 -71.759,-71.759c0,-39.631 32.128,-71.759 71.759,-71.759l71.759,0l0,71.759c0,39.631 -32.128,71.759 -71.759,71.759Z" style="fill:#d33367;fill-rule:nonzero;"/><path d="M840,674.472c-40.464,0 -73.266,-32.802 -73.266,-73.266c0,-40.464 32.802,-73.266 73.266,-73.266c40.464,0 73.266,32.802 73.266,73.266c0,40.464 -32.802,73.266 -73.266,73.266Z" style="fill:#36868e;fill-rule:nonzero;"/><path d="M840,644.095c-23.687,0 -42.889,-19.202 -42.889,-42.889c0,-23.687 19.202,-42.889 42.889,-42.889c23.687,0 42.889,19.202 42.889,42.889c0,23.687 -19.202,42.889 -42.889,42.889Z" style="fill:#2d374c;fill-rule:nonzero;"/></g><g><ellipse id="Shape84" cx="1560.3" cy="359.704" rx="100.835" ry="100.788" style="fill:#f1e3cf;"/><path id="Shape85" d="M1680,240c0,65.948 -53.33,119.409 -119.115,119.409c0,-65.948 53.329,-119.409 119.115,-119.409Z" style="fill:#d33367;fill-rule:nonzero;"/><path id="Shape86" d="M1559.12,355.931l0,3.478l-3.469,0c-63.869,0 -115.646,-51.904 -115.646,-115.931l0,-3.478l3.469,0c63.87,0 115.646,51.904 115.646,115.931Z" style="fill:#36868e;fill-rule:nonzero;"/><path id="Shape87" d="M1555.65,360.591l3.469,0l0,3.478c0,64.027 -51.776,115.931 -115.646,115.931l-3.469,0l0,-3.478c0,-64.027 51.777,-115.931 115.646,-115.931Z" style="fill:#d33367;fill-rule:nonzero;"/><path id="Shape88" d="M1680,476.522l0,3.478l-3.469,0c-63.87,0 -115.646,-51.904 -115.646,-115.931l0,-3.478l3.469,0c63.869,0 115.646,51.904 115.646,115.931Z" style="fill:#36868e;fill-rule:nonzero;"/></g><g><path id="Shape89" d="M539.4,240l121.2,0l-60.6,60.6l-60.6,-60.6Z" style="fill:#ff8b61;fill-rule:nonzero;"/><path id="Shape90" d="M720,240l0,240l-240,0l240,-240Z" style="fill:#36868e;fill-rule:nonzero;"/><path id="Shape91" d="M480,240l240,240l-240,0l0,-240Z" style="fill:#f1e3cf;fill-rule:nonzero;"/></g><g><path id="Shape92" d="M420.6,1200l-121.2,0l60.6,-60.6l60.6,60.6Z" style="fill:#36868e;fill-rule:nonzero;"/><path id="Shape93" d="M240,1200l0,-240l240,0l-240,240Z" style="fill:#f1e3cf;fill-rule:nonzero;"/><path id="Shape94" d="M480,1200l-240,-240l240,0l0,240Z" style="fill:#d33367;fill-rule:nonzero;"/></g><g><path id="Shape95" d="M1141.2,960l-121.2,0l60.6,-60.6l60.6,60.6Z" style="fill:#ff8b61;fill-rule:nonzero;"/><path id="Shape96" d="M960.6,960l0,-240l240,0l-240,240Z" style="fill:#36868e;fill-rule:nonzero;"/><path id="Shape97" d="M1200.6,960l-240,-240l240,0l0,240Z" style="fill:#f1e3cf;fill-rule:nonzero;"/></g><g><path id="Shape98" d="M1020,960l121.2,0l-60.6,60.6l-60.6,-60.6Z" style="fill:#ff8b61;fill-rule:nonzero;"/><path id="Shape99" d="M1200.6,960l0,240l-240,0l240,-240Z" style="fill:#36868e;fill-rule:nonzero;"/><path id="Shape100" d="M960.6,960l240,240l-240,0l0,-240Z" style="fill:#f1e3cf;fill-rule:nonzero;"/></g></g></svg>