<?xml version="1.0" encoding="UTF-8" standalone="no"?><!DOCTYPE svg PUBLIC "-//W3C//DTD SVG 1.1//EN" "http://www.w3.org/Graphics/SVG/1.1/DTD/svg11.dtd"><svg width="100%" height="100%" viewBox="0 0 1599 1200" version="1.1" xmlns="http://www.w3.org/2000/svg" xmlns:xlink="http://www.w3.org/1999/xlink" xml:space="preserve" style="fill-rule:evenodd;clip-rule:evenodd;stroke-linejoin:round;stroke-miterlimit:1.41421;"><g id="Module"><g><rect id="Shape" x="399" y="400" width="200" height="200" style="fill:#8bafbb;"/><ellipse id="Shape1" cx="499.044" cy="498.018" rx="82.044" ry="81.018" style="fill:#5c7985;"/><rect id="Shape2" x="399" y="499.739" width="200" height="100" style="fill:#f5e304;"/><ellipse id="Shape3" cx="498.951" cy="499.676" rx="81.951" ry="80.937" style="fill:#fff;"/></g><g><path id="Shape4" d="M799,1000l0,-200l-200,0l0,200l200,0Z" style="fill:#8bafbb;"/><path id="Shape5" d="M780.062,900.018c0,45.281 -36.303,82.044 -81.018,82.044c-44.715,0 -81.017,-36.763 -81.017,-82.044c0,-45.282 36.302,-82.045 81.017,-82.045c44.715,0 81.018,36.763 81.018,82.045Z" style="fill:#5c7985;"/><path id="Shape6" d="M699,1000l0,-200l-100,0l0,200l100,0Z" style="fill:#f5e304;"/><path id="Shape7" d="M779.888,899.937c0,45.23 -36.266,81.951 -80.937,81.951c-44.67,0 -80.936,-36.721 -80.936,-81.951c0,-45.23 36.266,-81.952 80.936,-81.952c44.671,0 80.937,36.722 80.937,81.952Z" style="fill:#fff;"/></g><g><path id="Shape8" d="M999,600l0,200l200,0l0,-200l-200,0Z" style="fill:#8bafbb;"/><path id="Shape9" d="M1016,699.956c0,-45.282 36.303,-82.044 81.018,-82.044c44.714,0 81.017,36.762 81.017,82.044c0,45.281 -36.303,82.044 -81.017,82.044c-44.715,0 -81.018,-36.763 -81.018,-82.044Z" style="fill:#5c7985;"/><path id="Shape10" d="M1099,600l0,200l100,0l0,-200l-100,0Z" style="fill:#f5e304;"/><path id="Shape11" d="M1017.74,700.049c0,-45.23 36.266,-81.952 80.937,-81.952c44.67,0 80.936,36.722 80.936,81.952c0,45.23 -36.266,81.951 -80.936,81.951c-44.671,0 -80.937,-36.721 -80.937,-81.951Z" style="fill:#fff;"/></g><g><rect id="Shape12" x="399" y="600" width="200" height="200" style="fill:#fff;"/><path id="Shape13" d="M399.204,623l0,121.796c0,30.375 24.625,55 55,55l121.796,0c0,-97.642 -79.154,-176.796 -176.796,-176.796Z" style="fill:#5c7985;fill-rule:nonzero;"/><circle id="Shape14" cx="432.978" cy="769.254" r="15.746" style="fill:#d3295d;"/></g><g><rect id="Shape15" x="399" y="800" width="200" height="200" style="fill:#c0e1dd;"/><circle id="Shape16" cx="499.276" cy="900.829" r="57.735" style="fill:#fff;"/><path id="Shape17" d="M500.346,901.219l14.676,0l0,-1.6l-14.676,0l0,-14.536l-1.851,0l0,14.536l-14.412,0l0,1.6l14.412,0l0,14.803l1.851,0l0,-14.803Z" style="fill:#5c7985;fill-rule:nonzero;"/></g><rect id="Shape18" x="599" y="1000" width="200" height="200" style="fill:#5c7985;"/><g><rect id="Shape19" x="399" y="1000" width="200" height="200" style="fill:#a3cec1;"/><path id="Shape20" d="M598.448,1199.45c0,-110.152 -89.296,-199.448 -199.448,-199.448c0,110.152 89.296,199.448 199.448,199.448Z" style="fill:#d3295d;fill-rule:nonzero;"/></g><g><rect id="Shape21" x="199" y="1000" width="200" height="200" style="fill:#a3cec1;"/><path id="Shape22" d="M216,1200l166.298,0l0,-99.724c0,-45.922 -37.227,-83.149 -83.149,-83.149c-45.922,0 -83.149,37.227 -83.149,83.149l0,99.724Z" style="fill:#f5e304;fill-rule:nonzero;"/></g><g><rect id="Shape23" x="199" y="600" width="200" height="200" style="fill:#c0e1dd;"/><path id="Shape24" d="M199,800l0,-100c0,-55.228 44.772,-100 100,-100l100,0c0,110.457 -89.543,200 -200,200Z" style="fill:#95c3b4;fill-rule:nonzero;"/></g><g><rect id="Shape25" x="1199" y="1000" width="200" height="200" style="fill:#c0e1dd;"/><path id="Shape26" d="M1199,1200l0,-100c0,-55.228 44.772,-100 100,-100l100,0c0,110.457 -89.543,200 -200,200Z" style="fill:#95c3b4;fill-rule:nonzero;"/></g><rect id="Shape27" x="-1" y="800" width="200" height="200" style="fill:#f5e304;"/><g><rect id="Shape28" x="599" y="600" width="200" height="200" style="fill:#a3cec1;"/><path id="Shape29" d="M599,800c0,-110.457 89.543,-200 200,-200c0,110.457 -89.543,200 -200,200Z" style="fill:#c0e1dd;fill-rule:nonzero;"/></g><g><rect id="Shape30" x="999" y="800" width="200" height="200" style="fill:#95c3b4;"/><circle id="Shape31" cx="1198.72" cy="799.724" r="51.105" style="fill:#5c7985;"/><circle id="Shape32" cx="998.724" cy="1000.28" r="51.105" style="fill:#5c7985;"/></g><g><path id="Shape33" d="M199,600l-200,0l0,200l200,0l0,-200Z" style="fill:#fff;fill-rule:nonzero;"/><path id="Shape34" d="M144,600l-145,0c0,110.457 89.543,200 200,200l0,-145c0,-30.376 -24.624,-55 -55,-55Z" style="fill:#d3295d;fill-rule:nonzero;"/></g><g><path id="Shape35" d="M1199,400l0,-200l200,0l0,200l-200,0Z" style="fill:#fff;"/><path id="Shape36" d="M1222,399.796l121.796,0c30.375,0 55,-24.625 55,-55l0,-121.796c-97.642,0 -176.796,79.154 -176.796,176.796Z" style="fill:#5c7985;fill-rule:nonzero;"/><path id="Shape37" d="M1352.51,366.022c0,8.69 7.056,15.746 15.746,15.746c8.691,0 15.746,-7.056 15.746,-15.746c0,-8.69 -7.055,-15.746 -15.746,-15.746c-8.69,0 -15.746,7.056 -15.746,15.746Z" style="fill:#d3295d;"/></g><g><path id="Shape38" d="M999,600l0,-200l200,0l0,200l-200,0Z" style="fill:#c0e1dd;"/><path id="Shape39" d="M1040.44,500.276c0,31.865 25.871,57.735 57.735,57.735c31.865,0 57.735,-25.87 57.735,-57.735c0,-31.864 -25.87,-57.735 -57.735,-57.735c-31.864,0 -57.735,25.871 -57.735,57.735Z" style="fill:#fff;"/><path id="Shape40" d="M1097.78,501.346l0,14.676l1.6,0l0,-14.676l14.536,0l0,-1.851l-14.536,0l0,-14.412l-1.6,0l0,14.412l-14.803,0l0,1.851l14.803,0Z" style="fill:#5c7985;fill-rule:nonzero;"/></g><path id="Shape41" d="M799,800l0,-200l200,0l0,200l-200,0Z" style="fill:#5c7985;"/><g><path id="Shape42" d="M799,600l0,-200l200,0l0,200l-200,0Z" style="fill:#a3cec1;"/><path id="Shape43" d="M799.552,599.448c110.152,0 199.448,-89.296 199.448,-199.448c-110.152,0 -199.448,89.296 -199.448,199.448Z" style="fill:#d3295d;fill-rule:nonzero;"/></g><g><path id="Shape44" d="M999,400l0,-200l-200,0l0,200l200,0Z" style="fill:#a3cec1;"/><path id="Shape45" d="M999,217l0,166.298l-99.724,0c-45.922,0 -83.149,-37.227 -83.149,-83.149c0,-45.922 37.227,-83.149 83.149,-83.149l99.724,0Z" style="fill:#f5e304;fill-rule:nonzero;"/></g><g><path id="Shape46" d="M799,200l0,-200l200,0l0,200l-200,0Z" style="fill:#c0e1dd;"/><path id="Shape47" d="M882.978,99.724c0,8.69 7.055,15.746 15.746,15.746c8.69,0 15.746,-7.056 15.746,-15.746c0,-8.691 -7.056,-15.746 -15.746,-15.746c-8.691,0 -15.746,7.055 -15.746,15.746Z" style="fill:#d3295d;"/></g><g><path id="Shape48" d="M1199,1000l0,-200l200,0l0,200l-200,0Z" style="fill:#c0e1dd;"/><path id="Shape49" d="M1282.98,899.724c0,8.69 7.055,15.746 15.746,15.746c8.69,0 15.746,-7.056 15.746,-15.746c0,-8.691 -7.056,-15.746 -15.746,-15.746c-8.691,0 -15.746,7.055 -15.746,15.746Z" style="fill:#d3295d;"/></g><g><path id="Shape50" d="M-1,1200l0,-200l200,0l0,200l-200,0Z" style="fill:#c0e1dd;"/><path id="Shape51" d="M82.978,1099.72c0,8.69 7.055,15.746 15.746,15.746c8.69,0 15.746,-7.056 15.746,-15.746c0,-8.691 -7.056,-15.746 -15.746,-15.746c-8.691,0 -15.746,7.055 -15.746,15.746Z" style="fill:#d3295d;"/></g><g><path id="Shape52" d="M1199,200l0,-200l200,0l0,200l-200,0Z" style="fill:#c0e1dd;"/><path id="Shape53" d="M1399,200l-100,0c-55.228,0 -100,-44.772 -100,-100l0,-100c110.457,0 200,89.543 200,200Z" style="fill:#95c3b4;fill-rule:nonzero;"/></g><path id="Shape54" d="M1199,600l0,-200l200,0l0,200l-200,0Z" style="fill:#f5e304;"/><g><path id="Shape55" d="M1199,800l0,-200l200,0l0,200l-200,0Z" style="fill:#a3cec1;"/><path id="Shape56" d="M1199,600c110.457,0 200,89.543 200,200c-110.457,0 -200,-89.543 -200,-200Z" style="fill:#c0e1dd;fill-rule:nonzero;"/></g><g><rect id="Shape57" x="399" y="0" width="200" height="200" style="fill:#a3cec1;"/><path id="Shape58" d="M599,0c0,110.457 -89.543,200 -200,200c0,-110.457 89.543,-200 200,-200Z" style="fill:#c0e1dd;fill-rule:nonzero;"/></g><g><path id="Shape59" d="M999,400l0,-200l200,0l0,200l-200,0Z" style="fill:#95c3b4;"/><path id="Shape60" d="M1148.17,399.724c0,28.205 22.9,51.105 51.105,51.105c28.206,0 51.105,-22.9 51.105,-51.105c0,-28.206 -22.899,-51.105 -51.105,-51.105c-28.205,0 -51.105,22.899 -51.105,51.105Z" style="fill:#5c7985;"/><path id="Shape61" d="M947.619,199.724c0,28.205 22.899,51.105 51.105,51.105c28.205,0 51.105,-22.9 51.105,-51.105c0,-28.206 -22.9,-51.105 -51.105,-51.105c-28.206,0 -51.105,22.899 -51.105,51.105Z" style="fill:#5c7985;"/></g><g><path id="Shape62" d="M1199,200l0,-200l-200,0l0,200l200,0Z" style="fill:#fff;fill-rule:nonzero;"/><path id="Shape63" d="M1199,145l0,-145c-110.457,0 -200,89.543 -200,200l145,0c30.376,0 55,-24.624 55,-55Z" style="fill:#d3295d;fill-rule:nonzero;"/></g><g><path id="Shape64" d="M199,800l0,200l200,0l0,-200l-200,0Z" style="fill:#fff;"/><path id="Shape65" d="M222,800.204l121.796,0c30.375,0 55,24.625 55,55l0,121.796c-97.642,0 -176.796,-79.154 -176.796,-176.796Z" style="fill:#5c7985;fill-rule:nonzero;"/><path id="Shape66" d="M352.508,833.978c0,-8.69 7.056,-15.746 15.746,-15.746c8.691,0 15.746,7.056 15.746,15.746c0,8.69 -7.055,15.746 -15.746,15.746c-8.69,0 -15.746,-7.056 -15.746,-15.746Z" style="fill:#d3295d;"/></g><g><rect id="Shape67" x="399" y="200" width="200" height="200" style="fill:#c0e1dd;"/><circle id="Shape68" cx="499.276" cy="299.171" r="57.735" style="fill:#fff;"/><path id="Shape69" d="M500.346,298.781l14.676,0l0,1.6l-14.676,0l0,14.536l-1.851,0l0,-14.536l-14.412,0l0,-1.6l14.412,0l0,-14.803l1.851,0l0,14.803Z" style="fill:#5c7985;fill-rule:nonzero;"/></g><g><rect id="Shape70" x="999" y="1000" width="200" height="200" style="fill:#c0e1dd;"/><circle id="Shape71" cx="1099.28" cy="1099.17" r="57.735" style="fill:#fff;"/><path id="Shape72" d="M1100.35,1098.78l14.676,0l0,1.6l-14.676,0l0,14.536l-1.851,0l0,-14.536l-14.412,0l0,-1.6l14.412,0l0,-14.803l1.851,0l0,14.803Z" style="fill:#5c7985;fill-rule:nonzero;"/></g><rect id="Shape73" x="599" y="0" width="200" height="200" style="fill:#5c7985;"/><g><path id="Shape74" d="M999,1200l0,-200l-200,0l0,200l200,0Z" style="fill:#a3cec1;"/><path id="Shape75" d="M998.448,1199.45c-110.152,0 -199.448,-89.296 -199.448,-199.448c110.152,0 199.448,89.296 199.448,199.448Z" style="fill:#d3295d;fill-rule:nonzero;"/></g><g><rect id="Shape76" x="199" y="0" width="200" height="200" style="fill:#a3cec1;"/><path id="Shape77" d="M216,0l166.298,0l0,99.724c0,45.922 -37.227,83.149 -83.149,83.149c-45.922,0 -83.149,-37.227 -83.149,-83.149l0,-99.724Z" style="fill:#f5e304;fill-rule:nonzero;"/></g><g><rect id="Shape78" x="-1" y="0" width="200" height="200" style="fill:#c0e1dd;"/><circle id="Shape79" cx="98.724" cy="99.724" r="15.746" style="fill:#d3295d;"/></g><g><rect id="Shape80" x="599" y="200" width="200" height="200" style="fill:#8bafbb;"/><circle id="Shape81" cx="698.724" cy="299.724" r="15.746" style="fill:#f5e304;"/></g><g><path id="Shape82" d="M199,600l0,-200l-200,0l0,200l200,0Z" style="fill:#c0e1dd;"/><path id="Shape83" d="M-1,600l100,0c55.228,0 100,-44.772 100,-100l0,-100c-110.457,0 -200,89.543 -200,200Z" style="fill:#95c3b4;fill-rule:nonzero;"/></g><rect id="Shape84" x="199" y="200" width="200" height="200" style="fill:#f5e304;"/><rect id="Shape85" x="1399" y="200" width="200" height="200" style="fill:#f5e304;"/><g><rect id="Shape86" x="599" y="400" width="200" height="200" style="fill:#a3cec1;"/><path id="Shape87" d="M599,400c0,110.457 89.543,200 200,200c0,-110.457 -89.543,-200 -200,-200Z" style="fill:#c0e1dd;fill-rule:nonzero;"/></g><g><rect id="Shape88" x="199" y="400" width="200" height="200" style="fill:#95c3b4;"/><circle id="Shape89" cx="398.724" cy="600.276" r="51.105" style="fill:#5c7985;"/><circle id="Shape90" cx="198.724" cy="399.724" r="51.105" style="fill:#5c7985;"/></g><g><rect id="Shape91" x="799" y="800" width="200" height="200" style="fill:#d3295d;"/><circle id="Shape92" cx="998.724" cy="1000.28" r="51.105" style="fill:#fff;"/><circle id="Shape93" cx="798.724" cy="799.724" r="51.105" style="fill:#fff;"/></g><g><path id="Shape94" d="M199,200l0,200l-200,0l0,-200l200,0Z" style="fill:#fff;fill-rule:nonzero;"/><path id="Shape95" d="M199,255l0,145c-110.457,0 -200,-89.543 -200,-200l145,0c30.376,0 55,24.624 55,55Z" style="fill:#d3295d;fill-rule:nonzero;"/></g><g><rect id="Shape96" x="1399" y="800" width="200" height="200" style="fill:#8bafbb;"/><ellipse id="Shape97" cx="1499.04" cy="898.018" rx="82.044" ry="81.018" style="fill:#5c7985;"/><rect id="Shape98" x="1399" y="899.739" width="200" height="100" style="fill:#f5e304;"/><ellipse id="Shape99" cx="1498.95" cy="899.676" rx="81.951" ry="80.937" style="fill:#fff;"/></g><g><rect id="Shape100" x="1399" y="400" width="200" height="200" style="fill:#c0e1dd;"/><circle id="Shape101" cx="1499.28" cy="500.829" r="57.735" style="fill:#fff;"/><path id="Shape102" d="M1500.35,501.219l14.676,0l0,-1.6l-14.676,0l0,-14.536l-1.851,0l0,14.536l-14.412,0l0,1.6l14.412,0l0,14.803l1.851,0l0,-14.803Z" style="fill:#5c7985;fill-rule:nonzero;"/></g><g><rect id="Shape103" x="1399" y="0" width="200" height="200" style="fill:#a3cec1;"/><path id="Shape104" d="M1599,0c0,110.457 -89.543,200 -200,200c0,-110.457 89.543,-200 200,-200Z" style="fill:#c0e1dd;fill-rule:nonzero;"/></g><rect id="Shape105" x="1399" y="1000" width="200" height="200" style="fill:#5c7985;"/><g><rect id="Shape106" x="1399" y="600" width="200" height="200" style="fill:#a3cec1;"/><path id="Shape107" d="M1399,800c0,-110.457 89.543,-200 200,-200c0,110.457 -89.543,200 -200,200Z" style="fill:#c0e1dd;fill-rule:nonzero;"/></g></g></svg>