<?xml version="1.0" encoding="UTF-8" standalone="no"?>
<!DOCTYPE svg PUBLIC "-//W3C//DTD SVG 1.1//EN" "http://www.w3.org/Graphics/SVG/1.1/DTD/svg11.dtd">
<svg width="100%" height="100%" viewBox="0 0 8889 6667" version="1.1" xmlns="http://www.w3.org/2000/svg" xmlns:xlink="http://www.w3.org/1999/xlink" xml:space="preserve" style="fill-rule:evenodd;clip-rule:evenodd;stroke-linejoin:round;stroke-miterlimit:1.41421;">
    <g transform="matrix(5.55556,0,0,5.55556,0,0)">
        <g id="Waiau" transform="matrix(1,0,0,1,-0.701964,0)">
            <g id="Background" transform="matrix(1.0101,0,0,1.00913,-7.31303,-5.47945)">
                <rect x="0.702" y="0" width="1600" height="1200" style="fill:rgb(220,220,219);"/>
            </g>
            <path id="Shape" d="M1600.7,0L1600.7,1200L1010.64,1200L356.702,396.07L865.952,0L1600.7,0Z" style="fill:rgb(234,232,228);"/>
            <circle id="Shape1" cx="450.702" cy="414" r="249" style="fill:rgb(191,203,186);"/>
            <g id="Shape2" transform="matrix(0.865277,-0.501294,0.501294,0.865277,14.0646,656.099)">
                <rect x="933.563" y="261.805" width="588.232" height="80.155" style="fill:rgb(220,24,83);"/>
            </g>
            <g id="Shape3" transform="matrix(0.723492,0.690333,-0.690333,0.723492,809.956,-223.12)">
                <path d="M913.115,777.006L589.162,735.763L576.011,793.866L904.538,839.721L913.115,777.006Z" style="fill:rgb(220,24,83);"/>
            </g>
            <g id="Shape4" transform="matrix(-0.919331,0.393485,-0.393485,-0.919331,890.883,1572.5)">
                <path d="M429.116,824.576L135.632,892.222L143.52,930.566L432.87,881L429.116,824.576Z" style="fill:rgb(234,232,228);"/>
            </g>
            <g id="Shape5" transform="matrix(0.55779,0.829982,-0.829982,0.55779,1036.28,-137.888)">
                <rect x="566.189" y="890.947" width="162.706" height="25.211" style="fill:rgb(96,190,191);"/>
            </g>
            <g id="Shape6" transform="matrix(0.851522,-0.524318,0.524318,0.851522,-885.366,490.114)">
                <rect x="566.189" y="890.947" width="162.706" height="25.211" style="fill:rgb(96,190,191);"/>
            </g>
            <g id="Shape7" transform="matrix(0.5748,0.818294,-0.818294,0.5748,853.178,-347.315)">
                <path d="M835.595,618.57L686.965,629.764L682.788,676.051L838.796,672.993L835.595,618.57Z" style="fill:rgb(58,142,170);"/>
            </g>
            <g id="Shape8" transform="matrix(0.835878,-0.548915,0.548915,0.835878,55.4389,602.522)">
                <path d="M1627.15,141.563L430.449,176.657L436.184,256.035L1640.16,275.54L1627.15,141.563Z" style="fill:rgb(42,62,76);"/>
            </g>
            <g id="Shape9" transform="matrix(0.175165,0.212795,-0.40831,0.336106,886.568,645.569)">
                <path d="M1627.15,141.563L430.449,176.657L436.184,256.035L1640.16,275.54L1627.15,141.563Z" style="fill:rgb(42,62,76);"/>
            </g>
            <g id="Shape10" transform="matrix(0.874268,-0.485444,0.485444,0.874268,-156.681,432.217)">
                <path d="M562.582,492.147L949.497,494.637L949.497,545.003L567.008,542.886L562.582,492.147Z" style="fill:rgb(229,171,23);"/>
            </g>
            <g id="Shape11" transform="matrix(0.765578,-0.643343,0.643343,0.765578,-581.499,413.379)">
                <rect x="86.326" y="979.433" width="380.316" height="50.366" style="fill:rgb(234,232,228);"/>
            </g>
            <g id="Shape12" transform="matrix(0.740091,-0.672507,0.672507,0.740091,-486.532,488.544)">
                <path d="M311.263,851.618L466.294,861.506L466.294,895.815L311.263,885.927L311.263,851.618Z" style="fill:rgb(229,171,23);"/>
            </g>
            <g id="Shape13" transform="matrix(0.720095,0.693876,-0.693876,0.720095,455.713,-750.32)">
                <path d="M311.263,851.618L466.294,861.506L466.294,895.815L311.263,885.927L311.263,851.618Z" style="fill:rgb(96,190,191);"/>
            </g>
            <g id="Shape14" transform="matrix(0.532477,0.415853,-0.485768,0.621999,370.431,-494.56)">
                <path d="M311.263,851.618L466.294,861.506L466.294,895.815L311.263,885.927L311.263,851.618Z" style="fill:rgb(96,190,191);"/>
            </g>
            <g id="Shape15" transform="matrix(0.890327,-0.455322,0.455322,0.890327,-28.0819,629.104)">
                <path d="M1099.89,364.266L1483.83,352.996L1483.83,381.423L1099.89,392.693L1099.89,364.266Z" style="fill:rgb(40,32,61);fill-rule:nonzero;"/>
            </g>
            <g id="Shape16" transform="matrix(0.856396,-0.516319,0.516319,0.856396,108.804,701.613)">
                <path d="M1125.8,140.993L1505.62,140.993L1505.62,169.42L1125.8,169.42L1125.8,140.993Z" style="fill:rgb(191,203,186);"/>
            </g>
            <g id="Shape17" transform="matrix(0.890327,-0.455322,0.455322,0.890327,-68.4694,611.249)">
                <rect x="1044.65" y="444.161" width="379.905" height="7.185" style="fill:rgb(132,156,155);"/>
            </g>
            <g id="Shape18" transform="matrix(0.621932,0.783072,-0.783072,0.621932,668.557,-185.114)">
                <rect x="52" y="589.122" width="947.973" height="21.387" style="fill:rgb(40,32,61);"/>
            </g>
            <g id="Shape19" transform="matrix(0.587557,0.809183,-0.809183,0.587557,611.408,-92.5918)">
                <path d="M708.682,497.343L86.799,535.648L83.024,609.603L710.043,582.839L708.682,497.343Z" style="fill:rgb(132,156,155);"/>
            </g>
            <g id="Shape20" transform="matrix(0.972417,-0.233249,0.233249,0.972417,-141.046,251.531)">
                <ellipse cx="992.985" cy="722.127" rx="39.258" ry="39.047" style="fill:rgb(132,156,155);"/>
            </g>
            <g id="Shape21" transform="matrix(0.972417,-0.233249,0.233249,0.972417,-184.229,60.8018)">
                <ellipse cx="171.853" cy="684.87" rx="70.699" ry="70.319" style="fill:rgb(234,232,228);"/>
            </g>
            <g id="Shape22" transform="matrix(0.972417,-0.233249,0.233249,0.972417,-85.2238,125.172)">
                <ellipse cx="486.632" cy="422.923" rx="30.758" ry="30.593" style="fill:rgb(220,24,83);"/>
            </g>
            <g id="Shape23" transform="matrix(0.972417,-0.233249,0.233249,0.972417,-159.649,94.469)">
                <ellipse cx="319.603" cy="722.253" rx="30.609" ry="30.444" style="fill:rgb(191,203,186);"/>
            </g>
            <path id="Shape24" d="M508.829,485.163L788.636,291.961L786.264,288.526L506.457,481.728L508.829,485.163Z" style="fill:rgb(40,32,61);fill-rule:nonzero;"/>
            <path id="Shape25" d="M1076.04,911.576L1220.75,1081.24L1226.08,1076.7L1081.37,907.033L1076.04,911.576Z" style="fill:rgb(40,32,61);fill-rule:nonzero;"/>
            <g id="Shape26" transform="matrix(0.972417,-0.233249,0.233249,0.972417,-30.6581,60.175)">
                <path d="M187.897,55.805L286.524,265.401L290.301,263.624L191.674,54.028L187.897,55.805Z" style="fill:rgb(40,32,61);fill-rule:nonzero;"/>
            </g>
            <path id="Shape27" d="M262.818,945.804L78.873,1094.54L81.498,1097.78L265.443,949.05L262.818,945.804Z" style="fill:rgb(40,32,61);fill-rule:nonzero;"/>
            <g id="Shape28" transform="matrix(0.75471,-0.656059,0.656059,0.75471,-205.335,980.479)">
                <path d="M1206.24,762.538L1206.24,703.402L1210.84,703.402L1210.84,762.538L1269.97,762.538L1269.97,767.135L1210.84,767.135L1210.84,826.27L1206.24,826.27L1206.24,767.135L1147.1,767.135L1147.1,762.538L1206.24,762.538Z" style="fill:rgb(220,24,83);"/>
            </g>
            <g id="Shape29" transform="matrix(0.75471,-0.656059,0.656059,0.75471,-435.313,285.492)">
                <path d="M171.149,679.447L171.149,648.995L173.517,648.995L173.517,679.447L203.969,679.447L203.969,681.815L173.517,681.815L173.517,712.267L171.149,712.267L171.149,681.815L140.697,681.815L140.697,679.447L171.149,679.447Z" style="fill:rgb(220,24,83);"/>
            </g>
        </g>
    </g>
</svg>
